<svg width="8" height="15" viewBox="0 0 8 15" fill="none" xmlns="http://www.w3.org/2000/svg">
<path d="M2.15379 0.998824C2.30318 0.998316 2.45079 1.03129 2.58577 1.09532C2.72075 1.15935 2.83967 1.2528 2.93379 1.36882L7.76378 7.36882C7.91087 7.54776 7.99127 7.7722 7.99127 8.00382C7.99127 8.23545 7.91087 8.45989 7.76378 8.63882L2.76378 14.6388C2.59405 14.843 2.35013 14.9715 2.08571 14.9958C1.82128 15.0202 1.558 14.9386 1.35378 14.7688C1.14957 14.5991 1.02114 14.3552 0.996764 14.0907C0.972384 13.8263 1.05405 13.563 1.22378 13.3588L5.69378 7.99882L1.37379 2.63882C1.2515 2.49204 1.17383 2.3133 1.14995 2.12375C1.12607 1.9342 1.15698 1.74178 1.23904 1.56925C1.3211 1.39672 1.45086 1.25131 1.61297 1.15022C1.77508 1.04913 1.96275 0.996592 2.15379 0.998824Z" fill="white"/>
</svg>
